<?xml version="1.0" encoding="utf-8"?>
<!-- Generator: Adobe Illustrator 16.0.0, SVG Export Plug-In . SVG Version: 6.00 Build 0)  -->
<!DOCTYPE svg PUBLIC "-//W3C//DTD SVG 1.1//EN" "http://www.w3.org/Graphics/SVG/1.1/DTD/svg11.dtd">
<svg version="1.1" id="圖層_1" xmlns="http://www.w3.org/2000/svg" xmlns:xlink="http://www.w3.org/1999/xlink" x="0px" y="0px"
	 width="512px" height="512px" viewBox="0 0 512 512" enable-background="new 0 0 512 512" xml:space="preserve">
<path fill="#2F343A" d="M149.333,32h213.333C427.468,32,480,84.532,480,149.334v213.333C480,427.469,427.468,480,362.666,480
	H149.333C84.531,480,32,427.469,32,362.667V149.334C32,84.532,84.531,32,149.333,32z"/>
<path fill="#FFFFFF" d="M153.185,396.287c-13.397-13.466-20.094-29.84-20.094-49.123V210.59
	c-9.626-4.049-17.44-10.057-23.448-18.026c-6.011-7.969-9.015-17.095-9.015-27.374c0-13.616,4.771-25.132,14.317-34.551
	c9.55-9.412,21.018-14.119,34.409-14.119c13.385,0,24.791,4.728,34.209,14.178c9.424,9.451,14.135,20.927,14.135,34.432
	c0,10.164-3.008,19.291-9.016,27.37c-6.011,8.084-13.829,14.115-23.446,18.09v136.59c0,10.256,3.575,19.021,10.719,26.266
	c7.149,7.259,16.109,10.889,26.884,10.889c10.65,0,19.475-3.63,26.474-10.889c6.998-7.276,10.498-16.01,10.498-26.202V185.838
	c0-19.571,6.662-36.021,19.979-49.338c13.323-13.319,29.809-19.98,49.455-19.98s36.164,6.661,49.564,19.98
	c13.403,13.317,20.1,29.768,20.1,49.338v136.568c9.471,3.979,17.245,9.986,23.333,18.006c6.087,8.036,9.129,17.183,9.129,27.454
	c0,13.298-4.73,24.728-14.201,34.276c-9.471,9.559-20.963,14.338-34.484,14.338c-13.298,0-24.727-4.803-34.285-14.393
	c-9.558-9.59-14.329-20.971-14.329-34.143c0-10.231,3.005-19.417,9.012-27.549c6.016-8.131,13.829-14.131,23.45-17.99V185.838
	c0-10.516-3.565-19.337-10.683-26.474c-7.117-7.132-15.977-10.699-26.582-10.699c-10.604,0-19.48,3.567-26.613,10.699
	c-7.133,7.137-10.698,15.926-10.698,26.372v161.428c0,19.283-6.658,35.657-19.98,49.123c-13.323,13.457-29.768,20.193-49.34,20.193
	S166.58,409.744,153.185,396.287z M149.318,183.968c5.271,0,9.752-1.863,13.446-5.579c3.693-3.717,5.54-8.215,5.54-13.489
	c0-5.271-1.835-9.717-5.509-13.335c-3.669-3.619-8.19-5.425-13.567-5.425c-5.215,0-9.682,1.804-13.399,5.409
	c-3.721,3.607-5.578,8.077-5.578,13.406c0,5.172,1.857,9.633,5.578,13.386C139.546,182.09,144.044,183.968,149.318,183.968z
	 M362.876,386.855c5.136,0,9.526-1.854,13.173-5.58c3.646-3.709,5.468-8.21,5.468-13.488c0-5.263-1.807-9.717-5.421-13.331
	c-3.605-3.614-8.084-5.422-13.418-5.422c-5,0-9.415,1.8-13.243,5.406c-3.836,3.605-5.746,8.076-5.746,13.41
	c0,5.167,1.91,9.629,5.746,13.378C353.263,384.985,357.74,386.855,362.876,386.855z"/>
</svg>
